<svg width="31" height="44" viewBox="0 0 31 44" fill="none" xmlns="http://www.w3.org/2000/svg">
<path d="M19.8535 16.0283H18.833C18.7236 15.2173 18.3273 14.4723 17.7158 13.9284C17.1044 13.3845 16.3183 13.0776 15.5 13.0635C14.6818 13.0776 13.8957 13.3845 13.2842 13.9284C12.6728 14.4723 12.2764 15.2173 12.167 16.0283H11.147C10.5858 16.0286 10.0477 16.2517 9.65078 16.6485C9.25387 17.0452 9.03061 17.5833 9.03003 18.1445V25.86C9.03053 26.4211 9.25363 26.9591 9.65038 27.356C10.0471 27.7528 10.5851 27.976 11.1462 27.9767H19.8532C20.4145 27.9762 20.9526 27.753 21.3495 27.3562C21.7463 26.9593 21.9695 26.4212 21.97 25.86V18.1445C21.9694 17.5834 21.7463 17.0454 21.3495 16.6486C20.9527 16.2519 20.4147 16.0288 19.8535 16.0283ZM15.5 14.1631C16.0274 14.1745 16.5351 14.3656 16.9392 14.7048C17.3433 15.0439 17.6195 15.5108 17.7222 16.0283H13.2778C13.3806 15.5108 13.6568 15.0439 14.0608 14.7048C14.4649 14.3656 14.9726 14.1745 15.5 14.1631ZM20.87 25.86C20.8697 26.1296 20.7626 26.388 20.572 26.5787C20.3814 26.7693 20.123 26.8767 19.8534 26.8771H11.1465C10.877 26.8766 10.6186 26.7693 10.428 26.5786C10.2375 26.388 10.1303 26.1295 10.13 25.86V18.1445C10.1303 17.875 10.2376 17.6166 10.4281 17.426C10.6187 17.2354 10.8771 17.1282 11.1466 17.1279H19.8536C20.1231 17.1282 20.3815 17.2355 20.572 17.4261C20.7625 17.6166 20.8697 17.875 20.87 18.1445V25.86Z" fill="black" fill-opacity="0.8"/>
</svg>
