<svg width="13" height="17" viewBox="0 0 13 17" fill="none" xmlns="http://www.w3.org/2000/svg">
<path d="M12.5729 5.68253C12.0521 6.00144 11.6206 6.44728 11.3189 6.97834C11.0173 7.50941 10.8553 8.10832 10.8481 8.71903C10.8502 9.40639 11.0538 10.078 11.4339 10.6508C11.8139 11.2236 12.3535 11.6723 12.986 11.9413C12.7367 12.7459 12.3676 13.5084 11.8912 14.2031C11.2096 15.1843 10.4969 16.1654 9.41254 16.1654C8.32814 16.1654 8.04924 15.5354 6.79954 15.5354C5.58084 15.5354 5.14704 16.1861 4.15554 16.1861C3.16404 16.1861 2.47214 15.2772 1.67684 14.1618C0.626307 12.5993 0.0489479 10.7668 0.0140381 8.88423C0.0140381 5.78583 2.02804 4.14373 4.01094 4.14373C5.06444 4.14373 5.94234 4.83563 6.60334 4.83563C7.23334 4.83563 8.21454 4.10233 9.41254 4.10233C10.0285 4.08644 10.6389 4.22225 11.19 4.49781C11.7412 4.77337 12.2161 5.18023 12.5729 5.68253ZM8.84454 2.79073C9.37264 2.16949 9.67158 1.38586 9.69144 0.570732C9.69233 0.463274 9.68194 0.35602 9.66044 0.250732C8.7533 0.339346 7.91444 0.771707 7.31594 1.45913C6.78275 2.05562 6.47254 2.81832 6.43804 3.61763C6.43844 3.71484 6.44883 3.81175 6.46904 3.90683C6.54055 3.92035 6.61316 3.92728 6.68594 3.92753C7.10401 3.89427 7.51095 3.77634 7.88204 3.58091C8.25312 3.38549 8.58058 3.11665 8.84454 2.79073Z" fill="black" fill-opacity="0.8"/>
</svg>
