<svg width="16" height="15" viewBox="0 0 16 15" fill="none" xmlns="http://www.w3.org/2000/svg">
<path d="M14.798 13.202L10.928 9.33195C11.629 8.40295 12.05 7.25095 12.05 5.99995C12.05 2.93995 9.56095 0.449951 6.49995 0.449951C3.43995 0.449951 0.949951 2.93995 0.949951 5.99995C0.949951 9.06095 3.43995 11.55 6.49995 11.55C7.75095 11.55 8.90295 11.129 9.83195 10.428L13.702 14.298C13.853 14.449 14.052 14.526 14.25 14.526C14.448 14.526 14.646 14.45 14.798 14.298C15.101 13.995 15.101 13.505 14.798 13.202ZM2.04995 5.99995C2.04995 3.54595 4.04695 1.54995 6.49995 1.54995C8.95395 1.54995 10.95 3.54695 10.95 5.99995C10.95 8.45295 8.95395 10.45 6.49995 10.45C4.04595 10.45 2.04995 8.45395 2.04995 5.99995Z" fill="black" fill-opacity="0.8"/>
</svg>
